# xmcd CD database file
#
# Track frame offsets:
#	150
#	13350
#	25838
#	43354
#	61164
#	82427
#	98960
#	118440
#	136632
#	147381
#	161400
#	180293
#	183886
#	197441
#	215659
#	240759
#
# Disc length: 3414 seconds
#
# Revision: 1
# Processed by: cddbd v1.5.2PL0 Copyright (c) Steve Scherf et al.
# Submitted via: CDex 1.51
#
DISCID=df0d5410
DTITLE=Akro - L'encre, la sueur et le sang
DYEAR=2006
DGENRE=Hip-Hop
TTITLE0=Intro
TTITLE1=Bitches from Brussels
TTITLE2=Loterie
TTITLE3=Paradoxe
TTITLE4=Elle veut
TTITLE5=Faux thug
TTITLE6=A la lettre
TTITLE7=L'enfant caché
TTITLE8=Pires sont ceux
TTITLE9=Rien n'est acquis
TTITLE10=Jardins suspendus
TTITLE11=Interlude musicale
TTITLE12=Mon beat est club
TTITLE13=L'équipe
TTITLE14=Consanguin
TTITLE15=Y a pas de thème
EXTD=YEAR: 2006
EXTT0=
EXTT1=
EXTT2=
EXTT3=
EXTT4=
EXTT5=
EXTT6=
EXTT7=
EXTT8=
EXTT9=
EXTT10=
EXTT11=
EXTT12=
EXTT13=
EXTT14=
EXTT15=
PLAYORDER=
